<mxfile host="app.diagrams.net" agent="Mozilla/5.0 (X11; Linux x86_64) AppleWebKit/537.36 (KHTML, like Gecko) Chrome/134.0.0.0 Safari/537.36" version="26.1.3">
  <diagram name="Page-1" id="b6obBKatxwg_O9KsBXw_">
    <mxGraphModel dx="1378" dy="786" grid="1" gridSize="10" guides="1" tooltips="1" connect="1" arrows="1" fold="1" page="1" pageScale="1" pageWidth="850" pageHeight="1100" math="0" shadow="0">
      <root>
        <mxCell id="0" />
        <mxCell id="1" parent="0" />
        <mxCell id="dhxLmd8erm8z7lSD_FkU-6" style="edgeStyle=orthogonalEdgeStyle;rounded=0;orthogonalLoop=1;jettySize=auto;html=1;" edge="1" parent="1" source="dhxLmd8erm8z7lSD_FkU-1" target="dhxLmd8erm8z7lSD_FkU-2">
          <mxGeometry relative="1" as="geometry" />
        </mxCell>
        <mxCell id="dhxLmd8erm8z7lSD_FkU-1" value="&lt;font style=&quot;font-size: 18px;&quot;&gt;Start&lt;/font&gt;" style="rounded=1;whiteSpace=wrap;html=1;" vertex="1" parent="1">
          <mxGeometry x="240" y="40" width="120" height="60" as="geometry" />
        </mxCell>
        <mxCell id="dhxLmd8erm8z7lSD_FkU-7" style="edgeStyle=orthogonalEdgeStyle;rounded=0;orthogonalLoop=1;jettySize=auto;html=1;" edge="1" parent="1" source="dhxLmd8erm8z7lSD_FkU-2" target="dhxLmd8erm8z7lSD_FkU-3">
          <mxGeometry relative="1" as="geometry" />
        </mxCell>
        <mxCell id="dhxLmd8erm8z7lSD_FkU-2" value="Analyze Current Process" style="rounded=1;whiteSpace=wrap;html=1;" vertex="1" parent="1">
          <mxGeometry x="240" y="150" width="120" height="60" as="geometry" />
        </mxCell>
        <mxCell id="dhxLmd8erm8z7lSD_FkU-8" style="edgeStyle=orthogonalEdgeStyle;rounded=0;orthogonalLoop=1;jettySize=auto;html=1;entryX=0.5;entryY=0;entryDx=0;entryDy=0;" edge="1" parent="1" source="dhxLmd8erm8z7lSD_FkU-3" target="dhxLmd8erm8z7lSD_FkU-4">
          <mxGeometry relative="1" as="geometry" />
        </mxCell>
        <mxCell id="dhxLmd8erm8z7lSD_FkU-3" value="&lt;sub&gt;&lt;font style=&quot;font-size: 12px;&quot;&gt;Design CLI Tool Arrchitechure&lt;/font&gt;&lt;/sub&gt;" style="rounded=1;whiteSpace=wrap;html=1;align=center;" vertex="1" parent="1">
          <mxGeometry x="240" y="260" width="120" height="60" as="geometry" />
        </mxCell>
        <mxCell id="dhxLmd8erm8z7lSD_FkU-9" style="edgeStyle=orthogonalEdgeStyle;rounded=0;orthogonalLoop=1;jettySize=auto;html=1;entryX=0.5;entryY=0;entryDx=0;entryDy=0;" edge="1" parent="1" source="dhxLmd8erm8z7lSD_FkU-4" target="dhxLmd8erm8z7lSD_FkU-5">
          <mxGeometry relative="1" as="geometry" />
        </mxCell>
        <mxCell id="dhxLmd8erm8z7lSD_FkU-4" value="Develop CLI Tool" style="rounded=1;whiteSpace=wrap;html=1;" vertex="1" parent="1">
          <mxGeometry x="240" y="360" width="120" height="60" as="geometry" />
        </mxCell>
        <mxCell id="dhxLmd8erm8z7lSD_FkU-11" style="edgeStyle=orthogonalEdgeStyle;rounded=0;orthogonalLoop=1;jettySize=auto;html=1;" edge="1" parent="1" source="dhxLmd8erm8z7lSD_FkU-5" target="dhxLmd8erm8z7lSD_FkU-10">
          <mxGeometry relative="1" as="geometry" />
        </mxCell>
        <mxCell id="dhxLmd8erm8z7lSD_FkU-5" value="Implement Testing" style="rounded=1;whiteSpace=wrap;html=1;" vertex="1" parent="1">
          <mxGeometry x="240" y="470" width="120" height="60" as="geometry" />
        </mxCell>
        <mxCell id="dhxLmd8erm8z7lSD_FkU-10" value="" style="rounded=1;whiteSpace=wrap;html=1;" vertex="1" parent="1">
          <mxGeometry x="240" y="580" width="120" height="60" as="geometry" />
        </mxCell>
      </root>
    </mxGraphModel>
  </diagram>
</mxfile>
